<svg width="16" height="16" viewBox="0 0 16 16" fill="none" xmlns="http://www.w3.org/2000/svg">
<g clip-path="url(#clip0)">
<path d="M9.19819 12.6133H1.20142C0.538194 12.6133 0 13.1514 0 13.8147V15.9994H10.3996V13.8147C10.3996 13.1514 9.86141 12.6133 9.19819 12.6133Z" fill="#B5B5B5"/>
<path d="M15.7843 12.7814L8.48455 5.48162L9.89449 4.07419C10.127 4.2792 10.4845 4.26917 10.7044 4.0492C10.9345 3.81672 10.9345 3.44421 10.7044 3.21173L7.6646 0.174358C7.43459 -0.0581193 7.05961 -0.0581193 6.82964 0.174358C6.59716 0.404361 6.59716 0.779346 6.82964 1.00932L6.80464 0.984318L2.94477 4.84164L2.96977 4.86912C2.73976 4.63664 2.36478 4.63664 2.13481 4.86912C1.90233 5.09912 1.90233 5.4741 2.13481 5.70411L5.17218 8.74395C5.40466 8.97396 5.77965 8.97396 6.00965 8.74395C6.23965 8.51148 6.23965 8.139 6.00965 7.90655L6.03465 7.93149L7.44459 6.52406L14.7418 13.8213C15.0293 14.1088 15.4968 14.1088 15.7843 13.8213C16.0717 13.5338 16.0717 13.0688 15.7843 12.7814Z" fill="#B5B5B5"/>
</g>
<defs>
<clipPath id="clip0">
<rect width="16" height="16" fill="white"/>
</clipPath>
</defs>
</svg>
