<svg width="56" height="56" viewBox="0 0 56 56" fill="none" xmlns="http://www.w3.org/2000/svg">
<circle cx="28" cy="28" r="28" fill="#BC002D"/>
<g clip-path="url(#clip0)">
<path fill-rule="evenodd" clip-rule="evenodd" d="M18.4912 18.4883C23.2305 13.749 30.9013 13.7483 35.6412 18.4883C39.4523 22.2994 40.1725 27.9661 37.9194 32.479L39.1685 37.9735C39.3308 38.6876 38.6908 39.328 37.9764 39.1656L32.4819 37.9165C24.4929 41.9052 14.9392 36.1305 14.9392 27.0634C14.9392 23.8242 16.2007 20.7789 18.4912 18.4883ZM32.1257 30.0832H24.5365C23.9864 30.0832 23.5404 29.6373 23.5404 29.0871C23.5404 28.537 23.9864 28.0911 24.5365 28.0911H32.1257C32.6758 28.0911 33.1218 28.537 33.1218 29.0871C33.1218 29.6373 32.6758 30.0832 32.1257 30.0832ZM32.1257 26.0357H22.0068C21.4567 26.0357 21.0107 25.5897 21.0107 25.0396C21.0107 24.4895 21.4566 24.0435 22.0068 24.0435H32.1257C32.6758 24.0435 33.1218 24.4895 33.1218 25.0396C33.1218 25.5897 32.6758 26.0357 32.1257 26.0357Z" fill="white"/>
<path d="M22.0068 26.0357H32.1257C32.6758 26.0357 33.1218 25.5897 33.1218 25.0396C33.1218 24.4895 32.6758 24.0435 32.1257 24.0435H22.0068C21.4566 24.0435 21.0107 24.4895 21.0107 25.0396C21.0107 25.5897 21.4567 26.0357 22.0068 26.0357Z" fill="white"/>
<path d="M24.5365 30.0832H32.1257C32.6758 30.0832 33.1218 29.6373 33.1218 29.0871C33.1218 28.537 32.6758 28.0911 32.1257 28.0911H24.5365C23.9864 28.0911 23.5404 28.537 23.5404 29.0871C23.5404 29.6373 23.9864 30.0832 24.5365 30.0832Z" fill="white"/>
</g>
<defs>
<clipPath id="clip0">
<rect width="24.2667" height="24.2667" fill="white" transform="matrix(-1 0 0 1 39.2 14.9336)"/>
</clipPath>
</defs>
</svg>
