<svg width="10" height="10" viewBox="0 0 10 10" fill="none" xmlns="http://www.w3.org/2000/svg">
<g clip-path="url(#clip0)">
<path d="M5.91617 5.01169L9.80998 1.11777C10.0634 0.864489 10.0634 0.454965 9.80998 0.201681C9.55669 -0.0516021 9.14717 -0.0516021 8.89388 0.201681L4.99996 4.0956L1.10614 0.201681C0.852742 -0.0516021 0.443336 -0.0516021 0.190052 0.201681C-0.0633506 0.454965 -0.0633506 0.864489 0.190052 1.11777L4.08386 5.01169L0.190052 8.90561C-0.0633506 9.15889 -0.0633506 9.56842 0.190052 9.8217C0.316279 9.94805 0.482248 10.0115 0.648098 10.0115C0.813949 10.0115 0.9798 9.94805 1.10614 9.8217L4.99996 5.92778L8.89388 9.8217C9.02023 9.94805 9.18608 10.0115 9.35193 10.0115C9.51778 10.0115 9.68363 9.94805 9.80998 9.8217C10.0634 9.56842 10.0634 9.15889 9.80998 8.90561L5.91617 5.01169Z" fill="#B5B5B5"/>
</g>
<defs>
<clipPath id="clip0">
<rect width="10" height="10" fill="white"/>
</clipPath>
</defs>
</svg>
