<svg width="21" height="20" viewBox="0 0 21 20" fill="none" xmlns="http://www.w3.org/2000/svg">
<g clip-path="url(#clip0)">
<path d="M20.3144 5.88005C20.2676 4.81738 20.0957 4.0868 19.8495 3.45374C19.5956 2.78176 19.2049 2.18014 18.693 1.68002C18.1929 1.1721 17.5873 0.777435 16.9231 0.527447C16.2864 0.281274 15.5596 0.109427 14.4969 0.0625732C13.4263 0.0117516 13.0865 0 10.3711 0C7.65571 0 7.31583 0.0117516 6.24919 0.0586052C5.18651 0.105459 4.45593 0.277459 3.82303 0.523479C3.1509 0.777435 2.54928 1.16814 2.04915 1.68002C1.54124 2.18014 1.14673 2.78573 0.896587 3.44992C0.650415 4.0868 0.478567 4.81341 0.431714 5.87609C0.380892 6.9467 0.369141 7.28658 0.369141 10.002C0.369141 12.7173 0.380892 13.0572 0.427746 14.1239C0.474599 15.1865 0.646599 15.9171 0.892771 16.5502C1.14673 17.2221 1.54124 17.8238 2.04915 18.3239C2.54928 18.8318 3.15487 19.2265 3.81906 19.4765C4.45593 19.7226 5.18254 19.8945 6.24537 19.9413C7.31186 19.9883 7.65189 19.9999 10.3673 19.9999C13.0826 19.9999 13.4225 19.9883 14.4892 19.9413C15.5518 19.8945 16.2824 19.7226 16.9153 19.4765C18.2594 18.9568 19.3221 17.8941 19.8418 16.5502C20.0878 15.9133 20.2598 15.1865 20.3066 14.1239C20.3535 13.0572 20.3652 12.7173 20.3652 10.002C20.3652 7.28658 20.3613 6.9467 20.3144 5.88005ZM18.5134 14.0457C18.4703 15.0225 18.3063 15.5499 18.1695 15.9015C17.8335 16.7728 17.142 17.4643 16.2707 17.8004C15.919 17.9372 15.3878 18.1012 14.4148 18.1441C13.3599 18.1911 13.0436 18.2027 10.375 18.2027C7.70653 18.2027 7.38619 18.1911 6.33511 18.1441C5.35836 18.1012 4.83091 17.9372 4.47928 17.8004C4.0457 17.6402 3.65103 17.3862 3.33068 17.0541C2.99859 16.7298 2.74463 16.3391 2.58438 15.9055C2.44764 15.5539 2.28357 15.0225 2.24069 14.0497C2.19368 12.9948 2.18208 12.6783 2.18208 10.0097C2.18208 7.34122 2.19368 7.02087 2.24069 5.96995C2.28357 4.99319 2.44764 4.46575 2.58438 4.11412C2.74463 3.68038 2.99859 3.28586 3.33465 2.96536C3.65881 2.63327 4.04951 2.37931 4.48325 2.21921C4.83488 2.08247 5.36629 1.9184 6.33908 1.87537C7.39397 1.82851 7.7105 1.81676 10.3789 1.81676C13.0513 1.81676 13.3677 1.82851 14.4188 1.87537C15.3956 1.9184 15.923 2.08247 16.2746 2.21921C16.7082 2.37931 17.1029 2.63327 17.4232 2.96536C17.7553 3.28967 18.0093 3.68038 18.1695 4.11412C18.3063 4.46575 18.4703 4.99701 18.5134 5.96995C18.5602 7.02484 18.572 7.34122 18.572 10.0097C18.572 12.6783 18.5602 12.9908 18.5134 14.0457Z" fill="white"/>
<path d="M10.3711 4.86328C7.53472 4.86328 5.2334 7.16445 5.2334 10.001C5.2334 12.8376 7.53472 15.1387 10.3711 15.1387C13.2077 15.1387 15.5088 12.8376 15.5088 10.001C15.5088 7.16445 13.2077 4.86328 10.3711 4.86328ZM10.3711 13.3337C8.53101 13.3337 7.03841 11.8413 7.03841 10.001C7.03841 8.16074 8.53101 6.66829 10.3711 6.66829C12.2114 6.66829 13.7038 8.16074 13.7038 10.001C13.7038 11.8413 12.2114 13.3337 10.3711 13.3337Z" fill="white"/>
<path d="M16.9117 4.66036C16.9117 5.32273 16.3746 5.85979 15.7121 5.85979C15.0498 5.85979 14.5127 5.32273 14.5127 4.66036C14.5127 3.99785 15.0498 3.46094 15.7121 3.46094C16.3746 3.46094 16.9117 3.99785 16.9117 4.66036Z" fill="white"/>
</g>
<defs>
<clipPath id="clip0">
<rect width="20" height="20" fill="white" transform="translate(0.333984)"/>
</clipPath>
</defs>
</svg>
