<svg width="22" height="22" viewBox="0 0 22 22" fill="none" xmlns="http://www.w3.org/2000/svg">
<g clip-path="url(#clip0)">
<path d="M1.37376 1.49694C-0.355075 3.29269 -0.0012415 5.20027 -0.0012415 10.9954C-0.0012415 15.8079 -0.840908 20.6324 3.55359 21.7681C4.92584 22.121 17.0845 22.121 18.4549 21.7663C20.2846 21.2942 21.7733 19.8101 21.9768 17.2224C22.0052 16.8612 22.0052 5.13611 21.9758 4.7676C21.7595 2.01119 20.0628 0.422605 17.827 0.100856C17.3146 0.0266055 17.2119 0.00460551 14.5829 2.21804e-05C5.25767 0.00460551 3.21351 -0.410645 1.37376 1.49694Z" fill="url(#paint0_linear)"/>
<path d="M11.0013 2.87503C7.67284 2.87503 4.51217 2.57894 3.30492 5.67728C2.80625 6.95694 2.87867 8.61886 2.87867 10.9985C2.87867 13.0867 2.81175 15.0493 3.30492 16.3189C4.50942 19.419 7.69575 19.122 10.9994 19.122C14.1867 19.122 17.4729 19.4539 18.6948 16.3189C19.1944 15.0264 19.1211 13.3892 19.1211 10.9985C19.1211 7.82503 19.2962 5.77628 17.7571 4.23811C16.1988 2.67978 14.0913 2.87503 10.9976 2.87503H11.0013ZM10.2734 4.33894C17.2163 4.32794 18.0999 3.55611 17.6123 14.2784C17.439 18.0706 14.5515 17.6544 11.0022 17.6544C4.5305 17.6544 4.34442 17.4693 4.34442 10.9949C4.34442 4.44528 4.85775 4.34261 10.2734 4.33711V4.33894ZM15.3371 5.68736C14.799 5.68736 14.3627 6.12369 14.3627 6.66178C14.3627 7.19986 14.799 7.63619 15.3371 7.63619C15.8752 7.63619 16.3115 7.19986 16.3115 6.66178C16.3115 6.12369 15.8752 5.68736 15.3371 5.68736ZM11.0013 6.82678C8.69767 6.82678 6.83042 8.69494 6.83042 10.9985C6.83042 13.3021 8.69767 15.1694 11.0013 15.1694C13.3048 15.1694 15.1712 13.3021 15.1712 10.9985C15.1712 8.69494 13.3048 6.82678 11.0013 6.82678ZM11.0013 8.29069C14.5808 8.29069 14.5854 13.7064 11.0013 13.7064C7.42259 13.7064 7.41709 8.29069 11.0013 8.29069Z" fill="white"/>
</g>
<defs>
<linearGradient id="paint0_linear" x1="1.41594" y1="20.5949" x2="21.8626" y2="2.8985" gradientUnits="userSpaceOnUse">
<stop stop-color="#FFDD55"/>
<stop offset="0.5" stop-color="#FF543E"/>
<stop offset="1" stop-color="#C837AB"/>
</linearGradient>
<clipPath id="clip0">
<rect width="22" height="22" fill="white"/>
</clipPath>
</defs>
</svg>
