<svg width="89" height="42" viewBox="0 0 89 42" fill="none" xmlns="http://www.w3.org/2000/svg">
<path d="M8.0129 27.8633L10.054 41.5829H6.40903L6.21657 39.1165H4.94061L4.72676 41.5829H1.03906L2.85915 27.8633H8.0129ZM6.1239 36.6833C5.94332 35.1294 5.76273 33.2095 5.57978 30.9213C5.21623 33.5493 4.98813 35.4692 4.89546 36.6833H6.1239Z" fill="white"/>
<path d="M18.7693 27.8633V37.0326C18.7693 38.0734 18.736 38.8028 18.6671 39.2234C18.5982 39.644 18.3986 40.0764 18.066 40.5207C17.7333 40.9651 17.2937 41.3001 16.7472 41.5282C16.2031 41.7563 15.5592 41.8704 14.8202 41.8704C14.0005 41.8704 13.2782 41.7349 12.6509 41.464C12.0236 41.1932 11.5555 40.8391 11.2442 40.4043C10.9329 39.9695 10.75 39.5109 10.693 39.0262C10.6359 38.5438 10.6074 37.5269 10.6074 35.98V27.8633H14.1739V38.1494C14.1739 38.7482 14.2072 39.1307 14.2714 39.297C14.3355 39.4634 14.4686 39.5465 14.6658 39.5465C14.8915 39.5465 15.0365 39.4539 15.103 39.2709C15.1671 39.0879 15.2004 38.6531 15.2004 37.9712V27.8633H18.7693Z" fill="white"/>
<path d="M27.335 27.8633V30.6077H25.2155V41.5805H21.649V30.6077H19.5391V27.8633H27.335Z" fill="white"/>
<path d="M36.3004 35.8977C36.3004 37.2758 36.2672 38.2524 36.203 38.825C36.1389 39.3977 35.9345 39.9228 35.5924 40.3956C35.2502 40.8708 34.7892 41.2344 34.2071 41.4886C33.625 41.7429 32.9478 41.8712 32.1732 41.8712C31.439 41.8712 30.7784 41.75 30.1939 41.51C29.6094 41.27 29.1389 40.9088 28.7825 40.4289C28.4261 39.9489 28.2146 39.4262 28.1481 38.8607C28.0792 38.2951 28.0459 37.3067 28.0459 35.8953V33.5477C28.0459 32.1696 28.0792 31.193 28.1433 30.6204C28.2075 30.0477 28.4118 29.5226 28.754 29.0474C29.0961 28.5722 29.5571 28.2086 30.1392 27.9544C30.7214 27.7002 31.3986 27.5742 32.1732 27.5742C32.9074 27.5742 33.5679 27.6954 34.1525 27.9354C34.737 28.1754 35.2074 28.5365 35.5639 29.0165C35.9203 29.4965 36.1317 30.0192 36.1983 30.5847C36.2672 31.1502 36.3004 32.1387 36.3004 33.5501V35.8977ZM32.7339 31.3878C32.7339 30.7487 32.6983 30.3424 32.627 30.1642C32.5557 29.986 32.4108 29.898 32.1898 29.898C32.0045 29.898 31.8595 29.9693 31.7621 30.1143C31.6623 30.2592 31.6148 30.6845 31.6148 31.3902V37.7962C31.6148 38.5922 31.6481 39.084 31.7122 39.2693C31.7764 39.4547 31.9284 39.5497 32.166 39.5497C32.4084 39.5497 32.5652 39.4428 32.6318 39.229C32.7007 39.0151 32.7339 38.5042 32.7339 37.6964V31.3878Z" fill="white"/>
<path d="M45.1889 32.016H41.8766V30.999C41.8766 30.5238 41.8339 30.222 41.7507 30.0913C41.6652 29.9607 41.525 29.8965 41.3278 29.8965C41.1139 29.8965 40.95 29.9844 40.8407 30.1603C40.7314 30.3361 40.6743 30.6022 40.6743 30.9562C40.6743 31.4148 40.7361 31.7594 40.8597 31.9898C40.9785 32.2227 41.3135 32.5007 41.8671 32.8286C43.4544 33.7719 44.4547 34.5441 44.8681 35.1501C45.2816 35.756 45.4859 36.7302 45.4859 38.0726C45.4859 39.0492 45.3719 39.7692 45.1438 40.2325C44.9157 40.6959 44.4737 41.0832 43.8179 41.3968C43.1621 41.7104 42.3994 41.8673 41.5297 41.8673C40.5745 41.8673 39.7595 41.6867 39.0847 41.3255C38.4099 40.9644 37.968 40.5034 37.7589 39.945C37.5498 39.3866 37.4452 38.593 37.4452 37.5642V36.666H40.7575V38.334C40.7575 38.8473 40.805 39.1799 40.8977 39.3249C40.9904 39.4722 41.1567 39.5458 41.3943 39.5458C41.6319 39.5458 41.8077 39.4532 41.9242 39.2654C42.0406 39.0777 42.0976 38.8021 42.0976 38.4338C42.0976 37.6259 41.9883 37.0984 41.7673 36.849C41.5416 36.5995 40.9856 36.186 40.097 35.6039C39.2107 35.017 38.6214 34.5893 38.3339 34.3255C38.0464 34.0594 37.8064 33.6935 37.6187 33.223C37.4286 32.7549 37.3359 32.1562 37.3359 31.4267C37.3359 30.3765 37.469 29.6066 37.7375 29.1219C38.006 28.6348 38.4384 28.257 39.0372 27.9814C39.636 27.7081 40.3583 27.5703 41.2066 27.5703C42.1333 27.5703 42.9221 27.72 43.5756 28.0194C44.229 28.3188 44.6591 28.6966 44.8729 29.1504C45.0844 29.6042 45.1913 30.3765 45.1913 31.4671V32.016H45.1889Z" fill="white"/>
<path d="M46.6055 27.8633H52.5528V30.6077H50.172V33.2095H52.4007V35.8184H50.172V38.8361H52.7904V41.5805H46.6055V27.8633Z" fill="white"/>
<path d="M61.7811 27.8633V41.5829H58.6541L56.7984 35.3456V41.5829H53.8164V27.8633H56.7984L58.7991 34.0411V27.8633H61.7811Z" fill="white"/>
<path d="M63.2139 27.8633H65.8822C67.6049 27.8633 68.7692 27.9417 69.3774 28.1009C69.9857 28.2601 70.4467 28.5191 70.7627 28.8802C71.0787 29.2414 71.2759 29.6454 71.3567 30.0873C71.4375 30.5293 71.4755 31.4013 71.4755 32.701V37.5055C71.4755 38.7363 71.4185 39.5608 71.3021 39.9766C71.1856 40.3924 70.9837 40.7156 70.6962 40.9508C70.4087 41.186 70.0523 41.35 69.6293 41.4427C69.2064 41.5353 68.5672 41.5829 67.7142 41.5829H63.2139V27.8633ZM66.7804 30.2109V39.2353C67.2936 39.2353 67.6096 39.1331 67.7284 38.9264C67.8472 38.7197 67.9066 38.1589 67.9066 37.2441V31.9145C67.9066 31.292 67.8876 30.8952 67.8472 30.7193C67.8068 30.5435 67.7166 30.4152 67.5764 30.3344C67.4362 30.2513 67.1701 30.2109 66.7804 30.2109Z" fill="white"/>
<path d="M72.8066 27.8633H78.754V30.6077H76.3732V33.2095H78.6019V35.8184H76.3732V38.8361H78.9916V41.5805H72.8066V27.8633Z" fill="white"/>
<path d="M80.0176 27.8633H82.5434C84.2256 27.8633 85.3662 27.9274 85.9626 28.0581C86.559 28.1888 87.0437 28.5191 87.4191 29.0537C87.7945 29.5883 87.9822 30.439 87.9822 31.608C87.9822 32.6749 87.8492 33.3925 87.5831 33.7607C87.3169 34.129 86.7942 34.3476 86.0148 34.4213C86.7205 34.5971 87.1958 34.83 87.4381 35.1246C87.6805 35.4193 87.8325 35.6878 87.8919 35.9325C87.9514 36.1772 87.9799 36.8544 87.9799 37.9617V41.5805H84.6676V37.0207C84.6676 36.2865 84.6106 35.8327 84.4941 35.6569C84.3777 35.481 84.0759 35.3931 83.5841 35.3931V41.5781H80.0176V27.8633ZM83.5841 30.2109V33.2618C83.9857 33.2618 84.266 33.2071 84.4276 33.0954C84.5892 32.9861 84.67 32.6274 84.67 32.0238V31.2706C84.67 30.8358 84.5916 30.5506 84.4371 30.4152C84.2827 30.2798 83.9975 30.2109 83.5841 30.2109Z" fill="white"/>
<path d="M15.2718 18.8576L15.1529 18.3159L15.8159 16.3081C10.9069 13.597 5.98599 10.8811 1.01758 8.13672C1.01758 10.71 1.02946 15.8852 1.02946 15.8852C1.02946 15.8852 9.69744 18.6676 14.8464 20.357C14.9343 19.7938 15.0698 19.2687 15.2718 18.8576Z" fill="#FF0000"/>
<path d="M17.3986 12.5757C18.8789 12.5211 22.5262 12.3975 26.4491 12.3975C30.4314 12.3975 33.651 12.5235 36.0247 12.7729C37.3435 12.9131 39.5152 13.4026 42.3855 14.9494C42.6707 15.1039 42.9415 15.2512 43.2005 15.3914C45.0016 16.3703 46.154 16.9953 48.2236 17.5869C47.822 16.5177 47.3064 15.5054 46.6958 14.5598C47.9907 13.4763 49.2786 12.3833 50.5664 11.2926C54.2399 8.17758 63.6706 0.144009 63.6706 0.144009L63.3712 0.141633L53.6981 0.151137C53.6981 0.151137 47.765 7.63345 44.4456 11.8106C43.6092 10.9956 42.6849 10.2733 41.6846 9.65788C43.5807 6.00108 46.3156 0.685757 46.5865 0.136879C44.8115 0.136879 40.7508 0.125 40.7508 0.125C40.7508 0.125 39.4368 4.68234 38.4412 8.14431C37.3506 7.77839 36.2101 7.52415 35.0268 7.40297C35.3167 4.35682 35.6636 0.460028 35.6802 0.170145C34.0169 0.170145 32.4297 0.170145 30.795 0.170145C30.8116 0.445771 31.1656 4.35444 31.4579 7.44336C30.2841 7.5883 29.1483 7.85681 28.0672 8.24411C27.0645 4.77501 25.7149 0.127377 25.7149 0.127377C25.7149 0.127377 20.276 0.139256 19.903 0.139256C19.9647 0.28895 23.1463 6.45016 24.8761 9.81708C23.9019 10.4396 22.999 11.1643 22.1864 11.9793C19.2804 8.32252 12.7771 0.129751 12.7771 0.129751L2.85449 0.16777C2.85449 0.16777 8.58087 5.07203 11.1756 7.27466C12.7937 8.64567 15.2838 10.7675 17.3986 12.5757Z" fill="#FF0000"/>
<path d="M79.9232 0.125C79.9232 0.125 54.6535 14.0893 48.2998 17.6059C48.7964 17.7461 49.3477 17.8839 49.9726 18.0265C50.5143 18.15 50.9777 18.5231 51.2105 19.0268C51.3697 19.3737 51.5028 19.7777 51.6145 20.2125C61.1735 17.2186 85.7185 9.53432 87.9829 8.82387C87.9829 5.92504 87.9829 3.02621 87.9829 0.125C85.4643 0.129752 79.9232 0.125 79.9232 0.125Z" fill="#FF0000"/>
<path d="M52.0421 25.1655L51.9661 25.6384L51.5907 25.9354C51.4053 26.0827 51.0156 26.356 50.5547 26.5223H87.9829V20.3516L52.092 23.9704C52.1015 24.4907 52.0825 24.9137 52.0421 25.1655Z" fill="#FF0000"/>
<path d="M14.8088 24.6964C14.8064 24.6869 14.7779 24.4113 14.7494 23.9788L1.04883 22.3203V26.5165H17.249C16.0016 26.3074 14.9751 25.8132 14.8088 24.6964Z" fill="#FF0000"/>
<path d="M39.3207 15.6661C38.9144 15.5022 38.4962 15.3762 38.0709 15.2741C37.6456 15.1719 37.2155 15.1006 36.7831 15.0412C36.3482 14.9913 35.9182 14.9485 35.4762 14.9438L35.3408 14.9414L35.3384 15.0721C35.336 15.2455 35.3313 15.4214 35.3337 15.5948C35.3337 15.7683 35.3337 15.9441 35.336 16.1176C35.3384 16.291 35.3432 16.4669 35.3503 16.6427C35.3574 16.8185 35.3669 16.992 35.3788 17.1678C35.4073 16.9944 35.4334 16.8209 35.4548 16.6474C35.4762 16.474 35.4976 16.3005 35.5142 16.1271C35.5332 15.9536 35.5499 15.7802 35.5641 15.6067C35.576 15.4784 35.5855 15.3501 35.595 15.2242C35.9776 15.2527 36.3625 15.2859 36.745 15.3382C37.1704 15.3881 37.5933 15.4594 38.0139 15.5378C38.223 15.5782 38.4321 15.6233 38.6412 15.6732C38.8479 15.7231 39.0546 15.7778 39.2613 15.8372C39.4657 15.899 39.67 15.9631 39.872 16.0392C40.074 16.1152 40.2712 16.1984 40.4684 16.291C40.1191 16.0297 39.7271 15.8277 39.3207 15.6661Z" fill="white"/>
<path d="M42.8511 17.7588C42.9865 17.8586 43.1267 17.956 43.2669 18.0487C43.2217 18.0463 43.179 18.0415 43.1338 18.0391C42.9509 18.032 42.7655 18.0296 42.5802 18.0415C42.756 18.0986 42.9366 18.1437 43.1148 18.1841C43.2954 18.2221 43.4736 18.2577 43.6542 18.2863L44.0961 18.3552L43.7255 18.0938C43.476 17.918 43.2217 17.7516 42.958 17.5948C42.8249 17.5188 42.6943 17.4404 42.5564 17.3715C42.421 17.3002 42.2832 17.2313 42.1406 17.1719C42.2523 17.2812 42.3687 17.381 42.4875 17.4784C42.6063 17.5758 42.7275 17.6661 42.8511 17.7588Z" fill="white"/>
<path d="M50.039 24.0102C50.0794 24.0102 50.1174 23.9556 50.1459 23.9033C50.1341 23.9104 50.1222 23.9152 50.1079 23.9152C50.039 23.9152 49.9986 23.8011 49.9986 23.6633C49.9986 23.5231 50.039 23.4114 50.1079 23.4114C50.1198 23.4114 50.1341 23.4162 50.1459 23.4233C50.1174 23.3711 50.0794 23.3164 50.039 23.3164C49.9511 23.3164 49.8418 23.4851 49.8418 23.6657C49.8418 23.8415 49.9511 24.0102 50.039 24.0102Z" fill="white"/>
<path d="M18.437 17.0179L18.715 17.0416C18.7602 17.044 18.8101 17.0464 18.8434 17.0511C18.879 17.0606 18.917 17.0725 18.955 17.0915C19.1024 17.1723 19.2307 17.3125 19.3495 17.4551C19.2806 17.2816 19.1808 17.1129 19.0144 16.9941C18.974 16.9632 18.9241 16.9395 18.8719 16.9252C18.8125 16.9133 18.7697 16.9086 18.7246 16.9014L18.4489 16.8706C18.266 16.8539 18.0806 16.8373 17.8953 16.8302C17.71 16.823 17.5246 16.8207 17.3369 16.8325C17.5175 16.8824 17.7005 16.9157 17.8834 16.9466C18.0688 16.9751 18.2517 16.9965 18.437 17.0179Z" fill="white"/>
<path d="M50.0888 19.5451C50.0152 19.3859 49.8702 19.2694 49.6991 19.2314C45.8475 18.3618 44.6404 17.5658 41.801 16.0356C38.8974 14.4721 36.8373 14.1014 35.8964 14.0016C29.0485 13.2817 17.0588 13.8377 16.6952 13.8377C16.8259 14.2654 17.7098 14.5125 17.7098 14.5125L17.6955 14.5576C17.7264 14.5576 17.7597 14.5553 17.7977 14.5553L17.3748 14.1988L17.149 14.0088H17.4413L23.4623 14.0325L26.4728 14.0563C27.4755 14.0682 28.4806 14.0753 29.4833 14.1157C28.4806 14.0943 27.4755 14.1062 26.4728 14.1109L23.4623 14.1394L17.7312 14.2179L18.128 14.5457C20.0526 14.4982 25.5557 14.3913 30.6025 14.6194C28.4141 14.5838 25.7196 14.6218 23.4908 14.9045C28.5068 14.8499 33.6819 15.0447 34.5183 15.078C34.4304 15.4035 34.4137 15.4439 34.4137 15.4439C34.4137 15.4439 34.0217 15.4249 33.9076 15.4962C33.7959 15.5651 31.7026 17.6275 30.2247 17.7012C28.8323 17.7701 20.6775 17.6109 19.7247 17.5919L19.2852 17.8319C19.2852 17.8319 18.6008 17.8509 17.7597 17.9151C17.2702 17.9531 16.8116 18.3903 16.5099 18.7538L16.5313 18.8536L16.5883 19.115C16.1677 19.4049 15.9895 20.6975 15.942 21.9805C17.1134 22.0067 20.497 22.1469 20.497 22.1469L15.9277 22.7148C15.9277 23.4656 15.9681 24.1404 16.0228 24.5182C16.1725 25.5138 19.3778 25.4544 20.0764 25.4306C20.017 25.193 19.9861 24.9435 19.9861 24.6869C19.9861 22.9666 21.3809 21.5742 23.0988 21.5742C24.8191 21.5742 26.2115 22.969 26.2115 24.6869C26.2115 24.9412 26.1806 25.1883 26.1235 25.4259C26.2732 25.4259 26.4301 25.4259 26.5845 25.4259C26.5774 25.2952 26.5726 25.1669 26.5607 25.0362C26.5322 24.6845 26.4871 24.3353 26.4229 23.9883C26.3612 23.6438 26.278 23.2921 26.1758 22.9642C26.0689 22.634 25.924 22.3132 25.7576 21.9996C25.4297 21.3699 25.0163 20.7521 24.7787 20.0512C24.6575 19.7042 24.5862 19.3383 24.5648 18.9748C24.5434 18.6089 24.5767 18.2453 24.6385 17.8913C24.6028 18.2501 24.6005 18.6136 24.648 18.9677C24.6955 19.3217 24.7929 19.6662 24.9331 19.9918C25.2135 20.6452 25.6578 21.2107 26.0475 21.8332C26.2423 22.1445 26.4229 22.4724 26.5679 22.8193C26.7081 23.171 26.8174 23.5203 26.9124 23.879C27.0075 24.2378 27.0835 24.599 27.1405 24.9649C27.1643 25.117 27.1857 25.2714 27.2047 25.4259C29.2053 25.4259 31.4698 25.4259 33.7769 25.4259C33.7722 24.7273 33.7793 24.0335 33.7936 23.3373C33.8126 22.508 33.8435 21.6764 33.891 20.8495C33.9385 20.0203 34.0027 19.1934 34.0835 18.3689C34.1714 17.5444 34.2783 16.7223 34.4232 15.9049C34.3329 16.7294 34.283 17.5539 34.2498 18.3784C34.2236 19.2053 34.2165 20.0298 34.2236 20.8567C34.2331 21.6835 34.2593 22.508 34.2949 23.3325C34.3258 24.0311 34.3686 24.7297 34.4185 25.4259C36.6995 25.4259 38.9996 25.4259 41.1048 25.4259C41.1975 24.9792 41.2878 24.5301 41.3686 24.0786C41.4707 23.5155 41.5658 22.95 41.6513 22.3845C41.7369 21.819 41.8129 21.2487 41.8675 20.6784C41.9222 20.1082 41.965 19.5355 41.9459 18.9605C42.022 19.5308 42.0339 20.1106 42.0362 20.6856C42.0362 21.263 42.0172 21.8404 41.9863 22.4154C41.9555 22.9928 41.9174 23.5678 41.8675 24.1428C41.8319 24.5705 41.7915 24.9958 41.7464 25.4235C41.8818 25.4235 42.0196 25.4235 42.1527 25.4235C42.0956 25.1859 42.0647 24.9388 42.0647 24.6845C42.0647 22.9642 43.4595 21.5719 45.1774 21.5719C46.8977 21.5719 48.2901 22.9666 48.2901 24.6845C48.2901 24.9388 48.2592 25.1859 48.2022 25.4235C49.193 25.4235 49.7918 25.4235 49.8441 25.4235C50.2338 25.4235 50.8111 24.9673 50.8111 24.9673C50.9537 24.1665 50.7803 21.0515 50.0888 19.5451ZM32.8218 19.6045C32.4392 19.6045 32.116 19.4785 32.021 19.3074H33.6249C33.5274 19.4785 33.2067 19.6045 32.8218 19.6045ZM32.0685 19.0294C32.2016 18.8916 32.4891 18.7942 32.8218 18.7942C33.2209 18.7942 33.5512 18.9296 33.6344 19.1126L32.0685 19.0294ZM35.2905 19.652C34.908 19.652 34.5848 19.526 34.4898 19.355H36.0936C35.9962 19.526 35.6731 19.652 35.2905 19.652ZM34.5373 19.077C34.6704 18.9391 34.9579 18.8417 35.2905 18.8417C35.6897 18.8417 36.02 18.9772 36.1031 19.1601L34.5373 19.077ZM40.133 18.1812L35.0648 17.7535V17.7155C35.0648 17.7155 35.1147 14.9687 35.1765 14.7834C35.723 14.7715 38.3034 14.7335 40.6343 16.1472C40.746 16.9527 40.746 16.9527 40.746 16.9527C40.746 16.9527 40.1045 16.8981 40.1235 17.428C40.1425 17.9578 40.133 18.1812 40.133 18.1812ZM41.801 18.2501C41.801 18.2501 42.0172 17.4565 41.4826 17.226C41.428 16.8434 41.3781 16.5227 41.3781 16.5227L44.7711 18.5352L41.801 18.2501ZM46.9476 19.6211L48.4208 20.151L48.801 20.0868C48.7416 19.8896 49.1122 19.7446 48.9079 19.7138L46.8454 19.3954C46.8621 19.1577 48.7986 19.4666 49.49 19.6591C49.5209 19.7351 49.5494 19.8159 49.5756 19.8967C49.6088 20.0036 49.6374 20.1129 49.6611 20.2222C49.6849 20.3315 49.7039 20.4456 49.7181 20.5573C49.7324 20.6713 49.7371 20.7854 49.7395 20.9018C49.768 20.7901 49.7966 20.6761 49.8132 20.5596C49.8322 20.4432 49.8441 20.3268 49.8488 20.208C49.8512 20.17 49.8488 20.1296 49.8512 20.0915C49.9557 20.467 50.0817 21.0515 50.0651 21.3865C50.0651 21.3865 48.6323 20.581 47.9622 20.3577C47.6367 20.2412 47.1543 19.9038 46.9476 19.6211ZM49.6136 24.4992C49.5993 24.6346 49.5946 24.7677 49.5494 24.9103C49.5423 24.9293 49.5352 24.9459 49.5186 24.9697C49.5138 24.9744 49.509 24.9815 49.4995 24.9887C49.4948 24.9911 49.49 24.9958 49.4853 24.9958C49.4805 24.9982 49.471 25.0006 49.471 25.0006L49.4449 25.0029C49.4092 25.0077 49.376 25.0077 49.3403 25.0101C49.2714 25.0124 49.2025 25.0101 49.136 25.0053C49.0006 24.9958 48.8675 24.9768 48.7344 24.953C48.8699 24.9602 49.0029 24.9602 49.136 24.953C49.2025 24.9507 49.2691 24.9435 49.3332 24.9364C49.3665 24.9317 49.3974 24.9269 49.4306 24.9198L49.4473 24.9174C49.4496 24.9126 49.4544 24.8984 49.4568 24.8865C49.4782 24.7677 49.4782 24.6299 49.4758 24.4992C49.4734 24.3661 49.4687 24.2331 49.4639 24.1C49.4378 23.5678 49.4021 23.0332 49.3475 22.5033C49.3332 22.3702 49.3213 22.2395 49.3023 22.1089C49.2928 22.0447 49.2833 21.9805 49.2691 21.9188C49.2619 21.8855 49.2572 21.8689 49.2453 21.8451C49.2358 21.8213 49.2192 21.7976 49.2049 21.7738C49.1407 21.6764 49.0481 21.5837 48.953 21.4958C48.8556 21.4103 48.7534 21.3271 48.6489 21.2463C48.226 20.9279 47.7721 20.6404 47.3159 20.3505C47.8149 20.5573 48.2949 20.802 48.7487 21.1038C48.8628 21.1798 48.9744 21.2582 49.079 21.3485C49.1859 21.4388 49.2881 21.5315 49.3784 21.655C49.3997 21.6859 49.4211 21.7192 49.4378 21.7572C49.4568 21.7928 49.471 21.8404 49.4782 21.8736C49.4948 21.9449 49.5067 22.0114 49.5186 22.0803C49.5399 22.2158 49.5566 22.3512 49.5708 22.4843C49.6207 23.0236 49.6445 23.5606 49.6326 24.1024C49.6302 24.2283 49.6255 24.3614 49.6136 24.4992ZM49.7419 24.9245L49.8108 22.672L50.3407 23.6296L49.7419 24.9245Z" fill="white"/>
<path d="M17.0395 17.956C16.9207 18.0677 16.8185 18.1912 16.7354 18.3314C16.8637 18.234 16.9872 18.1366 17.1132 18.0463C17.2391 17.9584 17.3698 17.8728 17.5052 17.823C17.5218 17.8158 17.5385 17.8111 17.5551 17.8063C17.5717 17.8016 17.5884 17.7944 17.605 17.7944L17.6549 17.7897C17.6715 17.7873 17.6929 17.7897 17.7119 17.7873C17.7903 17.7826 17.8687 17.7826 17.9495 17.7754C18.1064 17.7635 18.2656 17.7493 18.4248 17.7184C18.2679 17.6875 18.1087 17.6709 17.9495 17.6614C17.8711 17.6542 17.7903 17.6542 17.7119 17.6495C17.6905 17.6495 17.6739 17.6471 17.6501 17.6495L17.5812 17.6566C17.5575 17.659 17.5385 17.6661 17.5171 17.6709C17.4957 17.6756 17.4743 17.6804 17.4553 17.6899C17.3721 17.7184 17.3009 17.7635 17.232 17.8063C17.1631 17.8491 17.0965 17.899 17.0395 17.956Z" fill="white"/>
<path d="M27.5301 17.4384C28.06 17.4407 28.5875 17.4431 29.1174 17.4384C29.3835 17.4336 29.6472 17.4289 29.9134 17.4217C29.9799 17.4194 30.0464 17.417 30.1153 17.4146L30.2175 17.4099L30.2436 17.4075L30.2745 17.4027L30.3339 17.3932C30.4836 17.3576 30.6119 17.3053 30.7379 17.2483C31.2345 17.0178 31.6764 16.7255 32.1184 16.4309C32.5556 16.1291 32.9833 15.8179 33.3943 15.4805C32.9358 15.749 32.4819 16.0175 32.021 16.2741C31.7905 16.4024 31.56 16.5307 31.3271 16.6495C31.0943 16.7683 30.859 16.8847 30.6214 16.9798C30.5026 17.0249 30.3815 17.0653 30.2722 17.0843L30.2341 17.0891L30.2151 17.0915H30.1914L30.0963 17.0938C30.0345 17.0962 29.968 17.0962 29.9039 17.0962C29.6425 17.0962 29.3764 17.0915 29.115 17.0867L27.5301 17.0677L25.9453 17.0606C25.4178 17.0653 24.8879 17.0606 24.3581 17.0724C23.3007 17.0843 22.2433 17.1105 21.1836 17.1699C22.2386 17.2649 23.2959 17.3196 24.3533 17.3623C24.8808 17.3861 25.4107 17.398 25.9382 17.4146C26.4728 17.4241 27.0026 17.4312 27.5301 17.4384Z" fill="white"/>
<path d="M45.1016 22.043C43.6997 22.043 42.5615 23.1811 42.5615 24.583C42.5615 25.9849 43.6997 27.123 45.1016 27.123C46.5035 27.123 47.6416 25.9849 47.6416 24.583C47.6416 23.1811 46.5035 22.043 45.1016 22.043ZM44.6335 22.9055C44.7832 22.8651 44.94 22.8413 45.1016 22.8413C45.1562 22.8413 45.2109 22.8437 45.2631 22.8485C45.401 22.8651 45.4912 22.8912 45.4912 22.8912C45.496 23.1241 45.313 23.3902 45.2346 23.5114C45.1562 23.6326 45.0255 23.5684 45.0255 23.5684C44.7927 23.4259 44.6335 22.9578 44.6335 22.9578V22.9055ZM43.3789 24.5569C43.386 24.0912 43.6236 23.7347 43.6236 23.7347C43.847 23.7965 44.049 24.046 44.144 24.1577C44.239 24.2694 44.1393 24.3739 44.1393 24.3739C43.9373 24.5569 43.4431 24.5759 43.4431 24.5759L43.3789 24.5569ZM43.6783 25.4194C43.6141 25.36 43.4858 25.0606 43.4526 24.937C43.4193 24.8135 43.5856 24.7897 43.5856 24.7897L44.2272 24.6139C44.46 24.5236 44.5432 24.7375 44.5432 24.7375C44.6525 24.9632 44.3792 25.1343 44.3792 25.1343C44.201 25.1937 43.9064 25.4099 43.8327 25.4645C43.7615 25.5168 43.6783 25.4194 43.6783 25.4194ZM44.5836 26.1988L44.5551 26.2368C44.4719 26.2106 44.3935 26.175 44.3175 26.137C44.0252 25.9611 43.8589 25.7354 43.8589 25.7354C43.9943 25.5453 44.3008 25.4432 44.4363 25.3933C44.5741 25.3434 44.6359 25.474 44.6359 25.474C44.7356 25.7283 44.5836 26.1988 44.5836 26.1988ZM44.7832 24.0864C44.5955 24.2527 44.3578 24.0365 44.3578 24.0365C44.2533 23.8821 43.9658 23.654 43.8921 23.5993C43.8209 23.5447 43.8921 23.4377 43.8921 23.4377C43.9302 23.3593 44.1844 23.155 44.2961 23.0885C44.4078 23.0219 44.4719 23.1764 44.4719 23.1764L44.8141 23.7466C44.9661 23.9486 44.7832 24.0864 44.7832 24.0864ZM45.1396 24.3478C45.294 24.3478 45.4176 24.4713 45.4176 24.6258C45.4176 24.7802 45.294 24.9038 45.1396 24.9038C44.9851 24.9038 44.8616 24.7802 44.8616 24.6258C44.8616 24.4737 44.9851 24.3478 45.1396 24.3478ZM45.496 26.2748C45.4176 26.3104 45.0897 26.3104 44.9638 26.2938C44.8354 26.2772 44.8806 26.1132 44.8806 26.1132L44.9709 25.455C44.978 25.2055 45.2085 25.2127 45.2085 25.2127C45.458 25.2008 45.5103 25.5192 45.5103 25.5192C45.496 25.7069 45.5768 26.0633 45.5982 26.1512C45.6172 26.2368 45.496 26.2748 45.496 26.2748ZM45.5174 24.0745C45.3012 23.9486 45.4318 23.654 45.4318 23.654C45.5459 23.5066 45.6718 23.1621 45.7027 23.0766C45.7336 22.991 45.8548 23.0267 45.8548 23.0267C45.8833 23.0314 45.9356 23.0552 45.9926 23.0861C46.1233 23.1645 46.2421 23.2572 46.349 23.3665C46.3561 23.433 46.2849 23.4971 46.2849 23.4971L45.85 24.0009C45.7075 24.2052 45.5174 24.0745 45.5174 24.0745ZM45.8382 26.1607C45.7194 25.9754 45.7003 25.6926 45.6885 25.5596C45.6766 25.4146 45.8191 25.3885 45.8191 25.3885C46.0758 25.3624 46.4536 25.6024 46.494 25.6285C46.3229 25.8542 46.0971 26.0396 45.8382 26.1607ZM46.8242 24.8325C46.7957 25.0226 46.7387 25.2032 46.6555 25.3695C46.5914 25.4289 46.4845 25.36 46.4845 25.36L45.8833 25.0749C45.6481 24.9917 45.7241 24.7755 45.7241 24.7755C45.7883 24.5331 46.1067 24.5806 46.1067 24.5806C46.2801 24.6519 46.646 24.6828 46.7363 24.6876C46.8266 24.6947 46.8242 24.8206 46.8242 24.8206C46.8242 24.823 46.8242 24.8277 46.8242 24.8325ZM46.1874 24.3763C46.0473 24.3406 46.0663 24.1981 46.0663 24.1981C46.1257 23.932 46.5153 23.6302 46.5153 23.6302L46.551 23.6183C46.7078 23.8535 46.8076 24.1268 46.8361 24.4238C46.6199 24.4903 46.3229 24.4096 46.1874 24.3763Z" fill="white"/>
<path d="M23.042 22.043C21.6401 22.043 20.502 23.1811 20.502 24.583C20.502 25.9849 21.6401 27.123 23.042 27.123C24.4439 27.123 25.582 25.9849 25.582 24.583C25.582 23.1811 24.4439 22.043 23.042 22.043ZM22.5359 22.915C22.6951 22.8675 22.8662 22.839 23.042 22.839C23.0753 22.839 23.1085 22.8413 23.1418 22.8437C23.2939 22.8603 23.3937 22.8912 23.3937 22.8912C23.3984 23.1241 23.2154 23.3902 23.137 23.5114C23.0586 23.6326 22.9279 23.5684 22.9279 23.5684C22.6951 23.4259 22.5359 22.9578 22.5359 22.9578V22.915ZM21.2979 24.5616C21.3003 24.3335 21.3455 24.1173 21.4286 23.9177C21.4809 23.8037 21.526 23.7324 21.526 23.7324C21.7494 23.7941 21.9514 24.0436 22.0464 24.1553C22.1415 24.267 22.0417 24.3715 22.0417 24.3715C21.8397 24.5545 21.3455 24.5735 21.3455 24.5735L21.2979 24.5616ZM21.5807 25.4194C21.5165 25.36 21.3882 25.0606 21.355 24.937C21.3217 24.8135 21.488 24.7897 21.488 24.7897L22.1296 24.6139C22.3624 24.5236 22.4456 24.7375 22.4456 24.7375C22.5549 24.9632 22.2816 25.1343 22.2816 25.1343C22.1034 25.1937 21.8088 25.4099 21.7351 25.4645C21.6615 25.5168 21.5807 25.4194 21.5807 25.4194ZM22.486 26.1988L22.4646 26.2273C22.284 26.1631 22.1153 26.0704 21.968 25.954C21.8349 25.8352 21.7613 25.7354 21.7613 25.7354C21.8967 25.5453 22.2032 25.4432 22.3387 25.3933C22.4765 25.3434 22.5383 25.474 22.5383 25.474C22.6381 25.7283 22.486 26.1988 22.486 26.1988ZM22.6856 24.0864C22.4979 24.2527 22.2603 24.0365 22.2603 24.0365C22.1557 23.8821 21.8682 23.654 21.7945 23.5993C21.7233 23.5447 21.7945 23.4377 21.7945 23.4377C21.8326 23.3593 22.0868 23.155 22.1985 23.0885C22.3102 23.0219 22.3743 23.1764 22.3743 23.1764L22.7165 23.7466C22.8685 23.9486 22.6856 24.0864 22.6856 24.0864ZM23.042 24.3478C23.1964 24.3478 23.32 24.4713 23.32 24.6258C23.32 24.7802 23.1964 24.9038 23.042 24.9038C22.8875 24.9038 22.764 24.7802 22.764 24.6258C22.7616 24.4737 22.8875 24.3478 23.042 24.3478ZM23.396 26.2748C23.3176 26.3104 22.9897 26.3104 22.8638 26.2938C22.7355 26.2772 22.7806 26.1132 22.7806 26.1132L22.8709 25.455C22.878 25.2055 23.1085 25.2127 23.1085 25.2127C23.358 25.2008 23.4103 25.5192 23.4103 25.5192C23.396 25.7069 23.4768 26.0633 23.4982 26.1512C23.5196 26.2368 23.396 26.2748 23.396 26.2748ZM23.4198 24.0745C23.2036 23.9486 23.3343 23.654 23.3343 23.654C23.4483 23.5066 23.5742 23.1621 23.6051 23.0766C23.636 22.991 23.7572 23.0267 23.7572 23.0267C23.8427 23.0385 24.116 23.2168 24.2134 23.3023C24.3108 23.3878 24.1849 23.4971 24.1849 23.4971L23.7501 24.0009C23.6075 24.2052 23.4198 24.0745 23.4198 24.0745ZM23.7477 26.175C23.6218 25.9897 23.6028 25.6974 23.5909 25.5596C23.579 25.4146 23.7216 25.3885 23.7216 25.3885C23.9924 25.36 24.4059 25.6332 24.4059 25.6332L24.4201 25.6499C24.2419 25.8756 24.0114 26.0586 23.7477 26.175ZM24.5817 25.3339C24.5271 25.4503 24.3845 25.3576 24.3845 25.3576L23.7833 25.0725C23.5481 24.9893 23.6241 24.7731 23.6241 24.7731C23.6883 24.5307 24.0067 24.5783 24.0067 24.5783C24.1801 24.6495 24.5461 24.6804 24.6364 24.6852C24.7266 24.6923 24.7243 24.8182 24.7243 24.8182C24.7361 24.9062 24.6387 25.2174 24.5817 25.3339ZM24.0899 24.3763C23.9497 24.3406 23.9687 24.1981 23.9687 24.1981C24.0281 23.932 24.4178 23.6302 24.4178 23.6302L24.4795 23.6088C24.7457 23.9914 24.7575 24.4214 24.7575 24.4214C24.5413 24.4975 24.23 24.4119 24.0899 24.3763Z" fill="white"/>
</svg>
