<svg width="24" height="24" viewBox="0 0 24 24" fill="none" xmlns="http://www.w3.org/2000/svg">
<g clip-path="url(#clip0)">
<path d="M23.0611 3.01501H8.76248C8.36937 1.84745 7.26502 1.00391 5.96659 1.00391C4.66817 1.00391 3.56382 1.84745 3.17071 3.01501H0.938803C0.420333 3.01501 0 3.43534 0 3.95381C0 4.47228 0.420333 4.89262 0.938803 4.89262H3.17078C3.56388 6.06017 4.66823 6.90372 5.96666 6.90372C7.26508 6.90372 8.36943 6.06017 8.76254 4.89262H23.0612C23.5797 4.89262 24 4.47228 24 3.95381C24 3.43534 23.5797 3.01501 23.0611 3.01501ZM5.96659 5.02611C5.37534 5.02611 4.89429 4.54507 4.89429 3.95381C4.89429 3.36255 5.37534 2.88151 5.96659 2.88151C6.55785 2.88151 7.0389 3.36255 7.0389 3.95381C7.0389 4.54507 6.55785 5.02611 5.96659 5.02611Z" fill="white"/>
<path d="M23.0611 11.058H20.8292C20.4361 9.89042 19.3316 9.04688 18.0333 9.04688C16.7349 9.04688 15.6306 9.89042 15.2375 11.058H0.938803C0.420333 11.058 0 11.4783 0 11.9968C0 12.5153 0.420333 12.9356 0.938803 12.9356H15.2375C15.6306 14.1031 16.735 14.9467 18.0333 14.9467C19.3317 14.9467 20.4361 14.1031 20.8292 12.9356H23.0612C23.5797 12.9356 24 12.5153 24 11.9968C24 11.4783 23.5797 11.058 23.0611 11.058ZM18.0333 13.0691C17.4421 13.0691 16.961 12.588 16.961 11.9968C16.961 11.4055 17.4421 10.9245 18.0333 10.9245C18.6246 10.9245 19.1056 11.4055 19.1056 11.9968C19.1056 12.588 18.6246 13.0691 18.0333 13.0691Z" fill="white"/>
<path d="M23.0611 19.1049H12.7847C12.3916 17.9373 11.2873 17.0938 9.98887 17.0938C8.69044 17.0938 7.58609 17.9373 7.19298 19.1049H0.938803C0.420333 19.1049 0 19.5252 0 20.0437C0 20.5621 0.420333 20.9825 0.938803 20.9825H7.19298C7.58609 22.15 8.69044 22.9936 9.98887 22.9936C11.2873 22.9936 12.3916 22.15 12.7847 20.9825H23.0612C23.5797 20.9825 24 20.5621 24 20.0437C24 19.5252 23.5797 19.1049 23.0611 19.1049ZM9.98887 21.116C9.39761 21.116 8.91656 20.635 8.91656 20.0437C8.91656 19.4525 9.39761 18.9714 9.98887 18.9714C10.5801 18.9714 11.0612 19.4524 11.0612 20.0437C11.0612 20.6349 10.5801 21.116 9.98887 21.116Z" fill="white"/>
</g>
<defs>
<clipPath id="clip0">
<rect width="24" height="24" fill="white"/>
</clipPath>
</defs>
</svg>
