<svg width="14" height="18" viewBox="0 0 14 18" fill="none" xmlns="http://www.w3.org/2000/svg">
<path d="M7.00012 4C4.31685 4 2.13379 6.18306 2.13379 8.86633C2.13379 12.2389 7.00491 18 7.00491 18C7.00491 18 11.8665 12.0731 11.8665 8.86633C11.8665 6.18306 9.68349 4 7.00012 4ZM8.4684 10.2912C8.06354 10.696 7.53187 10.8984 7.00012 10.8984C6.46846 10.8984 5.93662 10.696 5.53193 10.2912C4.7223 9.48165 4.7223 8.16437 5.53193 7.35474C5.92398 6.96252 6.44547 6.74651 7.00012 6.74651C7.55477 6.74651 8.07619 6.96261 8.4684 7.35474C9.27803 8.16437 9.27803 9.48165 8.4684 10.2912Z" fill="#5A9CFF"/>
</svg>
