<svg width="36" height="36" viewBox="0 0 36 36" fill="none" xmlns="http://www.w3.org/2000/svg">
<circle cx="18" cy="18" r="18" fill="#BC002D"/>
<g clip-path="url(#clip0)">
<path d="M25.4479 21.6839L23.2499 19.486C22.4649 18.701 21.1304 19.015 20.8164 20.0354C20.5809 20.742 19.796 21.1345 19.0895 20.9774C17.5195 20.5849 15.4 18.544 15.0075 16.8955C14.7721 16.189 15.243 15.404 15.9495 15.1685C16.97 14.8545 17.284 13.5201 16.499 12.7351L14.3011 10.5371C13.6731 9.98763 12.7311 9.98763 12.1816 10.5371L10.6901 12.0286C9.19866 13.5986 10.8471 17.759 14.5366 21.4484C18.226 25.1378 22.3864 26.8648 23.9564 25.2948L25.4479 23.8034C25.9974 23.1754 25.9974 22.2334 25.4479 21.6839Z" fill="white"/>
</g>
<defs>
<clipPath id="clip0">
<rect width="15.75" height="15.75" fill="white" transform="translate(10.125 10.125)"/>
</clipPath>
</defs>
</svg>
