<svg width="14" height="14" viewBox="0 0 14 14" fill="none" xmlns="http://www.w3.org/2000/svg">
<path d="M13.3637 10.1489L11.4851 8.27034C10.8142 7.59941 9.67362 7.86781 9.40525 8.73999C9.20397 9.34385 8.53304 9.67931 7.92921 9.5451C6.58735 9.20963 4.77585 7.46522 4.44039 6.05628C4.23911 5.45242 4.64166 4.78149 5.2455 4.58024C6.1177 4.31187 6.38608 3.17129 5.71515 2.50036L3.83655 0.621768C3.29981 0.152119 2.4947 0.152119 2.02505 0.621768L0.750289 1.89653C-0.524473 3.23838 0.884474 6.7943 4.03783 9.94765C7.19119 13.101 10.7471 14.5771 12.089 13.2352L13.3637 11.9604C13.8334 11.4237 13.8334 10.6186 13.3637 10.1489Z" fill="#5A9CFF"/>
</svg>
