<svg width="24" height="24" viewBox="0 0 24 24" fill="none" xmlns="http://www.w3.org/2000/svg">
<path d="M21.8438 1.875H2.15625C0.967312 1.875 0 2.84231 0 4.03125V16.2187C0 17.4077 0.967312 18.375 2.15625 18.375H3V20.337C3 21.0429 3.39839 21.6646 4.03969 21.9596C4.2825 22.0713 4.53816 22.126 4.79128 22.126C5.20673 22.126 5.61525 21.9785 5.9483 21.693C5.96175 21.6815 5.97478 21.6695 5.98744 21.657L9.30811 18.375H21.8438C23.0327 18.375 24 17.4077 24 16.2187V4.03125C24 2.84231 23.0327 1.875 21.8438 1.875ZM17.3887 9.37767L15.3292 11.4072C15.2747 11.4609 15.2499 11.5379 15.2627 11.6134L15.7494 14.4824C15.789 14.7159 15.726 14.9592 15.5649 15.1329C15.4165 15.2931 15.2152 15.375 15.0128 15.375C14.8923 15.375 14.7714 15.346 14.6609 15.2872L12.11 13.9314C12.0412 13.8948 11.9587 13.8948 11.89 13.9314L9.35475 15.279C9.14358 15.3912 8.89013 15.4072 8.67328 15.3064C8.35973 15.1606 8.19192 14.8283 8.24766 14.4996L8.73727 11.6134C8.75006 11.538 8.72522 11.461 8.6707 11.4073L6.61125 9.37772C6.44189 9.2108 6.35058 8.97548 6.38039 8.73956C6.42352 8.3978 6.68728 8.13722 7.01597 8.08894L9.8708 7.66955C9.94734 7.6583 10.0134 7.61002 10.0473 7.54045L11.3182 4.93702C11.4235 4.72139 11.6201 4.55916 11.8557 4.51383C12.1961 4.44839 12.5274 4.62066 12.674 4.92103L13.9526 7.54045C13.9866 7.60997 14.0526 7.6583 14.1292 7.66955L16.984 8.08894C17.3127 8.13722 17.5764 8.39784 17.6196 8.73956C17.6494 8.97544 17.5581 9.21075 17.3887 9.37767Z" fill="white"/>
</svg>
