<svg width="8" height="9" viewBox="0 0 8 9" fill="none" xmlns="http://www.w3.org/2000/svg">
<path d="M4.73293 4.50779L7.84797 1.39266C8.05069 1.19003 8.05069 0.862409 7.84797 0.659783C7.64534 0.457156 7.31772 0.457156 7.1151 0.659783L3.99996 3.77492L0.884915 0.659783C0.682193 0.457156 0.354668 0.457156 0.152041 0.659783C-0.0506804 0.862409 -0.0506804 1.19003 0.152041 1.39266L3.26709 4.50779L0.152041 7.62293C-0.0506804 7.82556 -0.0506804 8.15318 0.152041 8.3558C0.253023 8.45688 0.385798 8.50765 0.518478 8.50765C0.651158 8.50765 0.783839 8.45688 0.884915 8.3558L3.99996 5.24066L7.1151 8.3558C7.21617 8.45688 7.34885 8.50765 7.48153 8.50765C7.61421 8.50765 7.74689 8.45688 7.84797 8.3558C8.05069 8.15318 8.05069 7.82556 7.84797 7.62293L4.73293 4.50779Z" fill="#5A9CFF"/>
</svg>
