<svg width="28" height="28" viewBox="0 0 28 28" fill="none" xmlns="http://www.w3.org/2000/svg">
<path d="M14 28C21.732 28 28 21.732 28 14C28 6.26801 21.732 0 14 0C6.26801 0 0 6.26801 0 14C0 21.732 6.26801 28 14 28Z" fill="#039BE5"/>
<path d="M6.40794 13.6979L19.9063 8.49339C20.5328 8.26705 21.0799 8.64622 20.8769 9.59355L20.8781 9.59239L18.5798 20.4202C18.4094 21.1879 17.9533 21.3746 17.3151 21.0129L13.8151 18.4334L12.1269 20.0597C11.9403 20.2464 11.7828 20.4039 11.4211 20.4039L11.6696 16.8421L18.1563 10.9819C18.4386 10.7334 18.0933 10.5934 17.7211 10.8407L9.70494 15.8877L6.24927 14.8097C5.4991 14.5717 5.48277 14.0596 6.40794 13.6979Z" fill="white"/>
</svg>
