<svg width="16" height="109" viewBox="0 0 16 109" fill="none" xmlns="http://www.w3.org/2000/svg">
<path opacity="0.5" d="M8.39062 100.161C9.59375 100.301 10.5234 100.747 11.1797 101.497C11.8307 102.241 12.1562 103.234 12.1562 104.473C12.1562 105.817 11.6745 106.895 10.7109 107.707C9.7474 108.515 8.45833 108.918 6.84375 108.918L5.75 108.918C4.69271 108.918 3.76302 108.731 2.96094 108.356C2.15885 107.976 1.54427 107.439 1.11719 106.747C0.684896 106.054 0.46875 105.252 0.46875 104.34C0.46875 103.132 0.807291 102.163 1.48437 101.434C2.15625 100.705 3.08854 100.28 4.28125 100.161L4.28125 101.668C3.375 101.799 2.71875 102.083 2.3125 102.52C1.90625 102.952 1.70312 103.559 1.70312 104.34C1.70312 105.299 2.05729 106.051 2.76562 106.598C3.47396 107.14 4.48177 107.411 5.78906 107.411L6.89062 107.411C8.125 107.411 9.10677 107.153 9.83594 106.637C10.5651 106.122 10.9297 105.4 10.9297 104.473C10.9297 103.64 10.7422 103.002 10.3672 102.559C9.98698 102.111 9.32812 101.814 8.39062 101.668L8.39062 100.161ZM10.0859 92.8253L3.54687 89.9503L3.54687 88.1456L12 88.1456L12 89.5909L5.85156 89.5909L12 92.3253L12 93.3253L5.71875 96.1144L12 96.1144L12 97.5597L3.54687 97.5597L3.54687 95.6847L10.0859 92.8253ZM7.69531 85.5603C6.86719 85.5603 6.12239 85.3989 5.46094 85.0759C4.79948 84.7478 4.28906 84.2947 3.92969 83.7166C3.57031 83.1332 3.39062 82.4692 3.39062 81.7244C3.39062 80.5733 3.78906 79.6436 4.58594 78.9353C5.38281 78.2218 6.44271 77.865 7.76562 77.865L7.86719 77.865C8.6901 77.865 9.42969 78.0239 10.0859 78.3416C10.737 78.6541 11.2448 79.1046 11.6094 79.6931C11.974 80.2765 12.1562 80.9483 12.1562 81.7087C12.1562 82.8546 11.7578 83.7843 10.9609 84.4978C10.1641 85.2061 9.10937 85.5603 7.79687 85.5603L7.69531 85.5603ZM7.86719 84.1072C8.80469 84.1072 9.55729 83.891 10.125 83.4587C10.6927 83.0212 10.9766 82.4379 10.9766 81.7087C10.9766 80.9744 10.6901 80.391 10.1172 79.9587C9.53906 79.5265 8.73177 79.3103 7.69531 79.3103C6.76823 79.3103 6.01823 79.5317 5.44531 79.9744C4.86719 80.4119 4.57812 80.9952 4.57812 81.7244C4.57812 82.4379 4.86198 83.0134 5.42969 83.4509C5.99739 83.8884 6.80989 84.1072 7.86719 84.1072ZM4.71875 69.3031L4.71875 72.1391L12 72.1391L12 73.5844L4.71875 73.5844L4.71875 76.3656L3.54687 76.3656L3.54687 69.3031L4.71875 69.3031ZM7.86719 60.1162C9.15364 60.1162 10.1901 60.4105 10.9766 60.9991C11.763 61.5876 12.1562 62.3845 12.1562 63.3897C12.1562 64.4157 11.8307 65.223 11.1797 65.8116L15.25 65.8116L15.25 67.2569L3.54687 67.2569L3.54687 65.9366L4.48437 65.8662C3.75521 65.2777 3.39062 64.46 3.39062 63.4131C3.39062 62.3975 3.77344 61.5954 4.53906 61.0069C5.30469 60.4131 6.36979 60.1162 7.73437 60.1162L7.86719 60.1162ZM7.70312 61.5616C6.75 61.5616 5.99739 61.7647 5.44531 62.1709C4.89323 62.5772 4.61719 63.1345 4.61719 63.8428C4.61719 64.7178 5.00521 65.3741 5.78125 65.8116L9.82031 65.8116C10.5911 65.3793 10.9766 64.7178 10.9766 63.8272C10.9766 63.1345 10.7031 62.585 10.1562 62.1787C9.60416 61.7673 8.78646 61.5616 7.70312 61.5616ZM12.1562 54.1247C12.1562 55.2705 11.7812 56.2028 11.0312 56.9216C10.276 57.6403 9.26823 57.9997 8.00781 57.9997L7.74219 57.9997C6.90364 57.9997 6.15625 57.8408 5.5 57.5231C4.83854 57.2002 4.32291 56.7523 3.95312 56.1794C3.57812 55.6012 3.39062 54.9762 3.39062 54.3044C3.39062 53.2054 3.7526 52.3512 4.47656 51.7419C5.20052 51.1325 6.23698 50.8278 7.58593 50.8278L8.1875 50.8278L8.1875 56.5544C9.02083 56.5335 9.69531 56.2914 10.2109 55.8278C10.7214 55.3591 10.9766 54.7653 10.9766 54.0466C10.9766 53.5361 10.8724 53.1039 10.6641 52.7497C10.4557 52.3955 10.1797 52.0856 9.83593 51.82L10.5234 50.9372C11.612 51.6455 12.1562 52.708 12.1562 54.1247ZM4.57812 54.3044C4.57812 54.8877 4.79166 55.3773 5.21875 55.7731C5.64062 56.169 6.23437 56.4137 7 56.5075L7 52.2731L6.89062 52.2731C6.15625 52.3148 5.58854 52.5127 5.1875 52.8669C4.78125 53.221 4.57812 53.7002 4.57812 54.3044ZM4.71875 42.3206L4.71875 45.1566L12 45.1566L12 46.6019L4.71875 46.6019L4.71875 49.3831L3.54687 49.3831L3.54687 42.3206L4.71875 42.3206ZM6.46093 38.6962L6.46093 36.5009C6.47135 35.5426 6.72135 34.7848 7.21093 34.2275C7.70052 33.6702 8.36458 33.3916 9.20312 33.3916C10.0469 33.3916 10.724 33.678 11.2344 34.2509C11.7448 34.8238 12 35.5947 12 36.5634L12 40.1416L3.54687 40.1416L3.54687 38.6962L6.46093 38.6962ZM7.64062 38.6962L10.8203 38.6962L10.8203 36.5478C10.8203 36.0061 10.6823 35.5869 10.4062 35.29C10.125 34.9931 9.74218 34.8447 9.25781 34.8447C8.78906 34.8447 8.40625 34.9905 8.10937 35.2822C7.80729 35.5686 7.65104 35.9723 7.64062 36.4931L7.64062 38.6962ZM12 26.2053L3.54687 26.2053L3.54687 22.9084C3.54687 21.7834 3.74479 20.9215 4.14062 20.3225C4.53125 19.7183 5.10677 19.4162 5.86718 19.4162C6.25781 19.4162 6.61198 19.5334 6.92968 19.7678C7.24218 20.0022 7.48177 20.3485 7.64843 20.8069C7.76823 20.2965 8.0026 19.8876 8.35156 19.5803C8.70052 19.2678 9.11718 19.1116 9.60156 19.1116C10.3776 19.1116 10.9714 19.398 11.3828 19.9709C11.7943 20.5386 12 21.3433 12 22.385L12 26.2053ZM8.28906 24.76L10.8359 24.76L10.8359 22.3694C10.8359 21.7652 10.724 21.3147 10.5 21.0178C10.276 20.7157 9.96093 20.5647 9.55468 20.5647C8.71093 20.5647 8.28906 21.1845 8.28906 22.4241L8.28906 24.76ZM7.13281 24.76L7.13281 22.8928C7.13281 21.5386 6.73698 20.8616 5.94531 20.8616C5.15364 20.8616 4.74479 21.5022 4.71875 22.7834L4.71875 24.76L7.13281 24.76ZM10.9766 13.1669C10.9766 12.6512 10.8203 12.2007 10.5078 11.8153C10.1953 11.4299 9.80468 11.2163 9.33593 11.1747L9.33593 9.80749C9.82031 9.83354 10.2812 10.0002 10.7187 10.3075C11.1562 10.6148 11.5052 11.0262 11.7656 11.5419C12.026 12.0523 12.1562 12.594 12.1562 13.1669C12.1562 14.3179 11.7734 15.2346 11.0078 15.9169C10.237 16.594 9.18489 16.9325 7.85156 16.9325L7.60937 16.9325C6.78645 16.9325 6.05468 16.7815 5.41406 16.4794C4.77343 16.1773 4.27604 15.745 3.92187 15.1825C3.5677 14.6148 3.39062 13.9455 3.39062 13.1747C3.39062 12.2268 3.67447 11.4403 4.24218 10.8153C4.80989 10.1851 5.54687 9.84916 6.45312 9.80749L6.45312 11.1747C5.90625 11.2163 5.45833 11.4247 5.10937 11.7997C4.7552 12.1695 4.57812 12.6278 4.57812 13.1747C4.57812 13.9091 4.84375 14.4794 5.375 14.8856C5.90104 15.2867 6.66406 15.4872 7.66406 15.4872L7.9375 15.4872C8.91145 15.4872 9.66145 15.2867 10.1875 14.8856C10.7135 14.4846 10.9766 13.9117 10.9766 13.1669ZM12.1562 4.03468C12.1562 5.18052 11.7812 6.11281 11.0312 6.83156C10.276 7.55031 9.26822 7.90968 8.00781 7.90968L7.74218 7.90968C6.90364 7.90968 6.15625 7.75083 5.5 7.43312C4.83854 7.1102 4.32291 6.66229 3.95312 6.08937C3.57812 5.51125 3.39062 4.88625 3.39062 4.21437C3.39062 3.11541 3.7526 2.26125 4.47656 1.65187C5.20052 1.0425 6.23697 0.737808 7.58593 0.737808L8.1875 0.737808L8.1875 6.46437C9.02083 6.44354 9.69531 6.20135 10.2109 5.73781C10.7213 5.26906 10.9766 4.67531 10.9766 3.95656C10.9766 3.44614 10.8724 3.01385 10.6641 2.65968C10.4557 2.30552 10.1797 1.99562 9.83593 1.73L10.5234 0.847183C11.612 1.55552 12.1562 2.61802 12.1562 4.03468ZM4.57812 4.21437C4.57812 4.7977 4.79166 5.28729 5.21875 5.68312C5.64062 6.07895 6.23437 6.32375 7 6.4175L7 2.18312L6.89062 2.18312C6.15625 2.22479 5.58854 2.4227 5.1875 2.77687C4.78125 3.13104 4.57812 3.6102 4.57812 4.21437Z" fill="black"/>
</svg>
