<svg width="36" height="36" viewBox="0 0 36 36" fill="none" xmlns="http://www.w3.org/2000/svg">
<rect x="0.5" y="0.5" width="35" height="35" stroke="white"/>
<path d="M23.3594 12.6953C21.918 11.2188 19.9492 10.375 17.8398 10.375C13.5508 10.375 10.0352 13.8906 10.0352 18.1797C10.0352 19.5859 10.4219 20.9219 11.0898 22.082L10 26.125L14.1133 25.0703C15.2734 25.668 16.5391 26.0195 17.8398 26.0195C22.1641 26.0195 25.75 22.5039 25.75 18.2148C25.75 16.1055 24.8359 14.1719 23.3594 12.6953ZM17.8398 24.6836C16.6797 24.6836 15.5547 24.3672 14.5352 23.7695L14.3242 23.6289L11.8633 24.2969L12.5312 21.9062L12.3555 21.6602C11.7227 20.6055 11.3711 19.4102 11.3711 18.1797C11.3711 14.6289 14.2891 11.7109 17.875 11.7109C19.5977 11.7109 21.2148 12.3789 22.4453 13.6094C23.6758 14.8398 24.4141 16.457 24.4141 18.2148C24.4141 21.7656 21.4258 24.6836 17.8398 24.6836ZM21.4258 19.832C21.2148 19.7266 20.2656 19.2695 20.0898 19.1992C19.9141 19.1289 19.7734 19.0938 19.6328 19.3047C19.5273 19.4805 19.1406 19.9375 19.0352 20.0781C18.8945 20.1836 18.7891 20.2188 18.6133 20.1133C17.4531 19.5508 16.7148 19.0938 15.9414 17.793C15.7305 17.4414 16.1523 17.4766 16.5039 16.7383C16.5742 16.5977 16.5391 16.4922 16.5039 16.3867C16.4688 16.2812 16.0469 15.332 15.9062 14.9453C15.7305 14.5586 15.5898 14.5938 15.4492 14.5938C15.3438 14.5938 15.2031 14.5938 15.0977 14.5938C14.957 14.5938 14.7461 14.6289 14.5703 14.8398C14.3945 15.0508 13.9023 15.5078 13.9023 16.457C13.9023 17.4414 14.5703 18.3555 14.6758 18.4961C14.7812 18.6016 16.0469 20.5703 18.0156 21.4141C19.2461 21.9766 19.7383 22.0117 20.3711 21.9062C20.7227 21.8711 21.4961 21.4492 21.6719 20.9922C21.8477 20.5352 21.8477 20.1484 21.7773 20.0781C21.7422 19.9727 21.6016 19.9375 21.4258 19.832Z" fill="white"/>
</svg>
