<svg width="26" height="26" viewBox="0 0 26 26" fill="none" xmlns="http://www.w3.org/2000/svg">
<path fill-rule="evenodd" clip-rule="evenodd" d="M21.6224 4.34307C19.342 2.06 16.3093 0.80212 13.0783 0.800781C6.42075 0.800781 1.00243 6.21895 0.999752 12.8783C0.998859 15.0071 1.55497 17.0852 2.61201 18.9169L0.898438 25.1758L7.30149 23.4961C9.06579 24.4585 11.0521 24.9657 13.0734 24.9663H13.0785C19.7354 24.9663 25.1543 19.5477 25.1568 12.888C25.1581 9.66052 23.9029 6.62599 21.6224 4.34307ZM13.0783 22.9265H13.0742C11.2728 22.9257 9.50616 22.4416 7.96457 21.5271L7.59814 21.3095L3.79847 22.3062L4.81266 18.6016L4.57388 18.2218C3.56892 16.6234 3.03824 14.7759 3.03913 12.8791C3.04122 7.34397 7.54488 2.84076 13.0824 2.84076C15.7639 2.84165 18.2845 3.88723 20.1799 5.78483C22.0753 7.68243 23.1185 10.2047 23.1176 12.8873C23.1152 18.4228 18.6118 22.9265 13.0783 22.9265ZM18.585 15.4076C18.2833 15.2565 16.7995 14.5266 16.5227 14.4257C16.2463 14.325 16.0449 14.2749 15.8439 14.5769C15.6426 14.8789 15.0643 15.5588 14.8882 15.7601C14.712 15.9615 14.5362 15.9868 14.2343 15.8356C13.9325 15.6846 12.9601 15.3658 11.8072 14.3377C10.9101 13.5374 10.3045 12.5491 10.1283 12.2471C9.95247 11.9448 10.1268 11.7972 10.2607 11.6312C10.5874 11.2255 10.9146 10.8001 11.0152 10.5988C11.1159 10.3974 11.0654 10.2211 10.9899 10.0701C10.9146 9.91909 10.311 8.43359 10.0596 7.82912C9.81441 7.24087 9.56581 7.32032 9.38044 7.31109C9.20459 7.30232 9.0033 7.30053 8.80201 7.30053C8.60087 7.30053 8.27387 7.37596 7.99715 7.67827C7.72058 7.98043 6.94101 8.71046 6.94101 10.196C6.94101 11.6815 8.02244 13.1165 8.1733 13.318C8.32415 13.5194 10.3015 16.5678 13.3289 17.8749C14.0489 18.1861 14.611 18.3716 15.0494 18.5107C15.7725 18.7404 16.4302 18.708 16.9503 18.6304C17.5302 18.5436 18.7357 17.9002 18.9875 17.1953C19.2389 16.4903 19.2389 15.8861 19.1633 15.7601C19.088 15.6342 18.8867 15.5588 18.585 15.4076Z" fill="white"/>
</svg>
