<svg width="23" height="22" viewBox="0 0 23 22" fill="none" xmlns="http://www.w3.org/2000/svg">
<path fill-rule="evenodd" clip-rule="evenodd" d="M18.6294 3.6731C16.6998 1.74127 14.1337 0.676914 11.3998 0.675781C5.76647 0.675781 1.18174 5.26039 1.17948 10.8953C1.17872 12.6965 1.64928 14.4549 2.54369 16.0048L1.09375 21.3008L6.51171 19.8795C8.00458 20.6939 9.68527 21.123 11.3957 21.1235H11.4C17.0327 21.1235 21.6179 16.5385 21.6201 10.9034C21.6212 8.17248 20.5591 5.60481 18.6294 3.6731ZM11.3998 19.3975H11.3963C9.87209 19.3969 8.3772 18.9873 7.07278 18.2134L6.76273 18.0293L3.54763 18.8727L4.40578 15.738L4.20374 15.4167C3.35339 14.0642 2.90435 12.5009 2.90511 10.8959C2.90687 6.21233 6.71766 2.40192 11.4032 2.40192C13.6722 2.40267 15.805 3.28739 17.4088 4.89305C19.0126 6.49872 19.8953 8.63297 19.8945 10.9028C19.8925 15.5867 16.082 19.3975 11.3998 19.3975ZM16.0593 13.0354C15.804 12.9075 14.5485 12.2899 14.3143 12.2046C14.0804 12.1194 13.91 12.0769 13.7399 12.3325C13.5696 12.588 13.0803 13.1633 12.9312 13.3336C12.7822 13.5041 12.6334 13.5255 12.378 13.3976C12.1225 13.2698 11.2997 13 10.3243 12.1301C9.56518 11.4529 9.0527 10.6167 8.90365 10.3611C8.75486 10.1053 8.9024 9.98044 9.01569 9.83996C9.29214 9.49667 9.56896 9.13676 9.65405 8.96644C9.73928 8.79599 9.6966 8.64682 9.63265 8.51905C9.56896 8.39127 9.05824 7.13431 8.8455 6.62284C8.63804 6.12509 8.42768 6.19231 8.27083 6.18451C8.12203 6.17708 7.95171 6.17557 7.78139 6.17557C7.61119 6.17557 7.3345 6.23939 7.10035 6.49519C6.86633 6.75087 6.20669 7.36858 6.20669 8.62554C6.20669 9.88251 7.12175 11.0968 7.2494 11.2672C7.37705 11.4377 9.05018 14.0171 11.6118 15.1231C12.2211 15.3864 12.6967 15.5434 13.0677 15.6611C13.6795 15.8555 14.236 15.8281 14.6761 15.7623C15.1668 15.689 16.1869 15.1445 16.3999 14.5481C16.6126 13.9515 16.6126 13.4403 16.5486 13.3336C16.485 13.2271 16.3146 13.1633 16.0593 13.0354Z" fill="white"/>
</svg>
