<svg width="28" height="28" viewBox="0 0 28 28" fill="none" xmlns="http://www.w3.org/2000/svg">
<path d="M14.0035 0H13.9965C6.27725 0 0 6.279 0 14C0 17.0625 0.987 19.901 2.66525 22.2057L0.9205 27.4067L6.30175 25.6865C8.5155 27.153 11.1562 28 14.0035 28C21.7227 28 28 21.7192 28 14C28 6.28075 21.7227 0 14.0035 0Z" fill="#4CAF50"/>
<path d="M22.1519 19.7688C21.8142 20.7226 20.4737 21.5136 19.4044 21.7446C18.6729 21.9003 17.7174 22.0246 14.5009 20.6911C10.3867 18.9866 7.73716 14.8058 7.53066 14.5346C7.33291 14.2633 5.86816 12.3208 5.86816 10.3118C5.86816 8.30284 6.88841 7.32459 7.29966 6.90459C7.63741 6.55984 8.19566 6.40234 8.73116 6.40234C8.90441 6.40234 9.06016 6.41109 9.20016 6.41809C9.61141 6.43559 9.81791 6.46009 10.0892 7.10934C10.4269 7.92309 11.2494 9.93209 11.3474 10.1386C11.4472 10.3451 11.5469 10.6251 11.4069 10.8963C11.2757 11.1763 11.1602 11.3006 10.9537 11.5386C10.7472 11.7766 10.5512 11.9586 10.3447 12.2141C10.1557 12.4363 9.94216 12.6743 10.1802 13.0856C10.4182 13.4881 11.2407 14.8303 12.4517 15.9083C14.0144 17.2996 15.2814 17.7441 15.7347 17.9331C16.0724 18.0731 16.4749 18.0398 16.7217 17.7773C17.0349 17.4396 17.4217 16.8796 17.8154 16.3283C18.0954 15.9328 18.4489 15.8838 18.8199 16.0238C19.1979 16.1551 21.1982 17.1438 21.6094 17.3486C22.0207 17.5551 22.2919 17.6531 22.3917 17.8263C22.4897 17.9996 22.4897 18.8133 22.1519 19.7688Z" fill="#FAFAFA"/>
</svg>
