<svg width="36" height="36" viewBox="0 0 36 36" fill="none" xmlns="http://www.w3.org/2000/svg">
<rect x="0.5" y="0.5" width="35" height="35" stroke="white"/>
<g clip-path="url(#clip0)">
<path d="M16.454 14.8924C16.0813 14.6697 15.6035 14.9389 15.6035 15.3754V20.6254C15.6035 21.0642 16.082 21.3297 16.454 21.1092L20.8558 18.4879C21.2218 18.2697 21.221 17.7402 20.8565 17.5212L16.454 14.8924ZM16.7285 19.6362V16.3662L19.4698 18.0034L16.7285 19.6362Z" fill="white"/>
<path d="M23.928 11.4551C20.4382 10.9368 15.5632 10.9368 12.072 11.4551C10.6755 11.6621 9.57525 12.7586 9.33525 14.1821C8.88825 16.8243 8.88825 19.1801 9.33525 21.8216C9.57525 23.2458 10.6755 24.3416 12.072 24.5486C13.821 24.8081 15.915 24.9378 18.0082 24.9378C20.0977 24.9378 22.1865 24.8088 23.9287 24.5493C25.3237 24.3423 26.4232 23.2466 26.6647 21.8223C27.1117 19.1801 27.1117 16.8236 26.6647 14.1813C26.4247 12.7586 25.3245 11.6621 23.928 11.4551ZM25.5555 21.6348C25.3957 22.5768 24.6757 23.3013 23.763 23.4363C20.3745 23.9396 15.6345 23.9396 12.237 23.4356C11.3235 23.2998 10.6027 22.5761 10.4437 21.6341C10.0132 19.0886 10.0132 16.9158 10.4437 14.3688C10.6035 13.4268 11.3235 12.7038 12.2377 12.5673C13.9342 12.3161 15.9675 12.1901 17.9992 12.1901C20.0325 12.1901 22.0657 12.3161 23.7622 12.5673C24.6757 12.7031 25.3965 13.4268 25.5555 14.3688C25.986 16.9158 25.986 19.0886 25.5555 21.6348Z" fill="white"/>
</g>
<defs>
<clipPath id="clip0">
<rect width="18" height="18" fill="white" transform="translate(9 9)"/>
</clipPath>
</defs>
</svg>
