<svg width="23" height="22" viewBox="0 0 23 22" fill="none" xmlns="http://www.w3.org/2000/svg">
<g clip-path="url(#clip0)">
<path d="M22.0038 6.42389C21.7243 4.45078 20.1429 2.93702 18.1579 2.74271C16.59 2.58922 14.1333 2.40625 11.334 2.40625C8.5347 2.40625 6.07804 2.58922 4.51006 2.74271C2.52509 2.93698 0.943657 4.45078 0.664222 6.42384C0.223905 9.54907 0.223905 12.4515 0.664222 15.5767C0.943657 17.5498 2.52509 19.0636 4.51006 19.2579C6.078 19.4114 8.5347 19.5944 11.334 19.5944C14.1333 19.5944 16.5899 19.4114 18.1579 19.2579C20.1429 19.0636 21.7243 17.5498 22.0038 15.5768C22.4441 12.4515 22.4441 9.54907 22.0038 6.42389ZM20.3019 15.3358C20.134 16.5211 19.1836 17.4305 17.9905 17.5473C16.4606 17.6971 14.0639 17.8756 11.334 17.8756C8.60409 17.8756 6.20739 17.6971 4.67752 17.5473C3.4844 17.4305 2.53394 16.5211 2.3661 15.3358C2.15795 13.866 2.05242 12.4074 2.05242 11.0003C2.05242 9.5932 2.15795 8.13462 2.3661 6.66482C2.53394 5.47953 3.4844 4.57015 4.67752 4.45335C6.20743 4.30356 8.60409 4.12502 11.334 4.12502C14.0639 4.12502 16.4606 4.30352 17.9905 4.45335C19.1836 4.57015 20.134 5.47953 20.3019 6.66486C20.7196 9.63059 20.7196 12.3701 20.3019 15.3358Z" fill="white"/>
<path d="M10.2025 12.4001V9.57617L12.6829 10.9881L10.2025 12.4001Z" fill="white"/>
<path fill-rule="evenodd" clip-rule="evenodd" d="M14.4771 10.3684L9.84215 7.73007C9.62153 7.60443 9.3506 7.60571 9.13101 7.73332C8.91146 7.86099 8.77637 8.0958 8.77637 8.34976V13.6265C8.77637 13.8804 8.91146 14.1152 9.13101 14.2429C9.3506 14.3706 9.62149 14.3718 9.84215 14.2462L14.4771 11.6078C14.9547 11.3412 14.9546 10.6349 14.4771 10.3684ZM10.2025 9.57617V12.4001L12.6829 10.9881L10.2025 9.57617Z" fill="white"/>
</g>
<defs>
<clipPath id="clip0">
<rect width="22" height="22" fill="white" transform="translate(0.333984)"/>
</clipPath>
</defs>
</svg>
